# xmcd CD database file
#
# Track frame offsets:
#	150
#	17545
#	32085
#	43940
#	54008
#	75623
#	86663
#	97493
#	111263
#	121078
#	125898
#	146223
#	157660
#
# Disc length: 2334 seconds
#
# Revision: 0
# Processed by: cddbd v1.4PL0 Copyright (c) Steve Scherf et al.
# Submitted via: CDex 1.50beta10
#
DISCID=aa091c0d
DTITLE=Nara Leão - Meu Samba Encabulado
DYEAR=1983
DGENRE=Jazz
TTITLE0=Meu Cantar
TTITLE1=14 Anos
TTITLE2=Relembrando
TTITLE3=De Mal Pra Pior
TTITLE4=Há Música no Ar
TTITLE5=Eu e a Brisa
TTITLE6=Como Será o Ano 2000
TTITLE7=Isso é o Brasil
TTITLE8=Fundo Azul
TTITLE9=Pé-de-Moleque
TTITLE10=Firuliu
TTITLE11=Brasileirinho
TTITLE12=Quando a Saudade Apertar
EXTD=YEAR: 1983
EXTT0=
EXTT1=
EXTT2=
EXTT3=
EXTT4=
EXTT5=
EXTT6=
EXTT7=
EXTT8=
EXTT9=
EXTT10=
EXTT11=
EXTT12=
PLAYORDER=
